<svg width="96" height="96" viewBox="0 0 96 96" fill="none" xmlns="http://www.w3.org/2000/svg">
<g filter="url(#filter0_d)">
<rect x="4" width="88" height="88" rx="15" fill="url(#paint0_linear)"/>
</g>
<rect x="44" y="18" width="10" height="62" rx="5" fill="white"/>
<rect x="30" y="21.1279" width="5.8377" height="27.2896" rx="2.91885" transform="rotate(-45 30 21.1279)" fill="white"/>
<path d="M42 15.5C42 11.9101 44.9101 9 48.5 9H49.5C53.0899 9 56 11.9101 56 15.5V15.5C56 19.0899 53.0899 22 49.5 22H48.5C44.9101 22 42 19.0899 42 15.5V15.5Z" fill="#51BBFA"/>
<rect x="39.5798" y="11.3798" width="5.5209" height="13.5479" rx="2.76045" transform="rotate(45 39.5798 11.3798)" fill="white"/>
<path d="M43 13.25C43 9.79822 45.7982 7 49.25 7V7C52.7018 7 55.5 9.79822 55.5 13.25V13.75C55.5 17.2018 52.7018 20 49.25 20V20C45.7982 20 43 17.2018 43 13.75V13.25Z" fill="white"/>
<circle cx="51.5" cy="12.5" r="1.125" fill="#61C1F9" stroke="#61C1F9" stroke-width="0.75"/>
<circle cx="47.5" cy="12.5" r="1.125" fill="#61C1F9" stroke="#61C1F9" stroke-width="0.75"/>
<defs>
<filter id="filter0_d" x="0" y="0" width="96" height="96" filterUnits="userSpaceOnUse" color-interpolation-filters="sRGB">
<feFlood flood-opacity="0" result="BackgroundImageFix"/>
<feColorMatrix in="SourceAlpha" type="matrix" values="0 0 0 0 0 0 0 0 0 0 0 0 0 0 0 0 0 0 127 0"/>
<feOffset dy="4"/>
<feGaussianBlur stdDeviation="2"/>
<feColorMatrix type="matrix" values="0 0 0 0 0 0 0 0 0 0 0 0 0 0 0 0 0 0 0.25 0"/>
<feBlend mode="normal" in2="BackgroundImageFix" result="effect1_dropShadow"/>
<feBlend mode="normal" in="SourceGraphic" in2="effect1_dropShadow" result="shape"/>
</filter>
<linearGradient id="paint0_linear" x1="48" y1="0" x2="48" y2="88" gradientUnits="userSpaceOnUse">
<stop stop-color="#61C1F9"/>
<stop offset="0.612847" stop-color="#2EAFFB"/>
<stop offset="0.991219" stop-color="#0F94E3"/>
<stop offset="0.991319" stop-color="#4CBDFF" stop-opacity="0"/>
</linearGradient>
</defs>
</svg>
